<svg width="448" height="512" xmlns="http://www.w3.org/2000/svg" xmlns:xlink="http://www.w3.org/1999/xlink" overflow="hidden"><defs><clipPath id="clip0"><rect x="416" y="104" width="448" height="512"/></clipPath></defs><g clip-path="url(#clip0)" transform="translate(-416 -104)"><path d="M432 236 848 236C856.837 236 864 228.837 864 220L864 180C864 171.163 856.837 164 848 164L432 164C423.163 164 416 171.163 416 180L416 220C416 228.837 423.163 236 432 236ZM432 396 848 396C856.837 396 864 388.837 864 380L864 340C864 331.163 856.837 324 848 324L432 324C423.163 324 416 331.163 416 340L416 380C416 388.837 423.163 396 432 396ZM432 556 848 556C856.837 556 864 548.837 864 540L864 500C864 491.163 856.837 484 848 484L432 484C423.163 484 416 491.163 416 500L416 540C416 548.837 423.163 556 432 556Z" fill="#FFFFFF"/></g></svg>