<svg width="151" height="32" xmlns="http://www.w3.org/2000/svg"><g fill="#FFF" fill-rule="evenodd"><path d="M15.117 2.298a1.503 1.503 0 011.796 0 56.974 56.974 0 013.992 2.78s.3.199.4-.199a4.08 4.08 0 01.1-1.489.748.748 0 01.698-.496s1.497.099 2.495.198a.995.995 0 01.798.894s.599 4.17.798 5.66c.21.787.622 1.506 1.198 2.084a41.683 41.683 0 012.495 3.774s.499 1.092-.599 1.191c0 0-2.096.199-2.295.298a.557.557 0 00-.5.596s-.099 7.248-.598 10.822c0 0-.1 1.39-.898 1.39 0 0-2.096-.099-2.595-.099 0 0-.2 0-.2-.298 0 0 1.098-11.319.4-17.078a.993.993 0 00-.6-.893s-.498-.199-.997.496a17.9 17.9 0 00-3.393 10.227c-.065.767.003 1.54.2 2.284 0 0 .2.298 1.097.397l1.098.198s.2 0 .2.298c0 0-.3 3.376-.3 3.972.015.14-.02.28-.1.397a.581.581 0 01-.399.1H13.92a.49.49 0 01-.299-.1c-.1-.198-.3-4.27-.3-4.865 0-.1.1-.199.2-.298a2.977 2.977 0 001.397-2.184 7.755 7.755 0 000-1.887s.2-6.355.2-7.447c0 0 .1-.298-.4-.397a.38.38 0 00-.498.298s-.3 4.27-.3 5.858c0 0 .1 1.092-.598 1.092 0 0-.699.1-.799-.794 0 0 .1-4.07.2-6.156a.428.428 0 00-.4-.397c-.199-.1-.498.1-.498.397 0 0-.3 3.972-.3 5.957 0 0 .1.993-.698.993 0 0-.699.1-.699-.794 0 0 .2-5.66.2-6.057a.457.457 0 00-.4-.496h-.1c-.199 0-.498.1-.498.397v.1s-.32 6.751-.32 8.737a3.599 3.599 0 001.497 2.88c.114.057.19.17.2.297 0 0 .2 3.575.3 4.766 0 0 .1.298-.2.298l-3.793-.199s-.598.1-.798-.695a93.854 93.854 0 01-.698-11.418.557.557 0 00-.5-.596s-1.896-.198-2.395-.298a.824.824 0 01-.598-.993c0-.099.1-.099.1-.198A41.024 41.024 0 0115.116 2.298z"/><g fill-rule="nonzero"><path d="M58.7 17.4c-.4-.4-.9-.8-1.4-1-.7-.3-1.3-.4-2-.4s-1.4.1-2.1.4c-.6.2-1.2.6-1.7 1s-.9 1-1.1 1.6c-.6 1.5-.6 3.2 0 4.8.3.6.6 1.2 1.1 1.6.5.5 1.1.8 1.7 1 .7.2 1.4.4 2.1.4.8 0 1.5-.2 2.3-.5.6-.3 1.1-.6 1.5-1 .2-.2.2-.4 0-.6l-1.4-1-.1-.1c-.2-.1-.4-.1-.5.1-.2.2-.4.4-.6.5-.4.2-.8.3-1.2.3-.5 0-1.1-.2-1.5-.5-.5-.5-.7-1.1-.8-1.7 0-.1.1-.2.2-.2h6.3c.2 0 .4-.2.4-.5v-.5c0-.7-.1-1.4-.3-2.1-.2-.6-.6-1.1-.9-1.6M56.6 20h-3.4c-.1 0-.2-.1-.2-.2 0-.2.1-.3.2-.5s.2-.4.4-.6c.4-.4 1-.6 1.5-.6s1 .2 1.3.5c.3.3.5.7.5 1.1 0 .2-.1.3-.3.3M66.7 16.3h-1.5c-.1 0-.2-.1-.2-.2v-.7c0-.6.1-1.1.4-1.3.3-.2.7-.3 1.1-.3h.5c.2 0 .4-.2.4-.4v-1.6c0-.2-.2-.4-.4-.4h-1.3c-.7 0-1.3.1-2 .3-.4.2-.9.5-1.1.9-.3.4-.5.8-.5 1.2-.1.5-.1 1-.1 1.5v1c0 .1-.1.2-.2.2h-1.3c-.2 0-.4.2-.4.4v1.5c0 .2.2.4.4.4h1.3c.1 0 .2.1.2.2v7.2c0 .2.2.4.4.5h2.1c.2 0 .4-.2.4-.4v-7.2c0-.1.1-.2.2-.2h1.5c.2 0 .4-.2.4-.4V17c.1-.5-.1-.7-.3-.7M47.5 11.5c-1 0-1.7.8-1.8 1.7 0 1 .8 1.7 1.7 1.8 1 0 1.7-.8 1.8-1.7 0-.5-.2-.9-.5-1.2-.3-.4-.7-.6-1.2-.6M48.6 16.3h-2.1c-.2 0-.4.2-.5.4V26c0 .2.2.4.4.4h2.1c.2 0 .4-.2.4-.4v-9.3c.1-.2-.1-.4-.3-.4M84.3 16h-.6c-.6 0-1.2.1-1.7.4-.3.2-.6.5-.8.8v.2l-.1.1c-.1 0-.2-.1-.2-.1v-.6c0-.3-.2-.4-.5-.4h-2.1c-.2 0-.4.2-.5.4v9.4c0 .2.2.4.4.4h2.1c.2 0 .4-.2.4-.4V22c0-.4 0-.9.1-1.3s.2-.7.4-1c.2-.3.5-.5.8-.7.3-.2.7-.2 1.1-.2h1.1c.2 0 .4-.2.4-.4v-1.8c.2-.4-.1-.6-.3-.6M76 17.4c-.4-.4-.9-.8-1.4-1-.6-.3-1.2-.4-1.9-.4s-1.4.1-2.1.4c-.6.2-1.2.6-1.7 1s-.9 1-1.1 1.6c-.5 1.5-.5 3.2 0 4.8.3.6.6 1.2 1.1 1.6.5.5 1.1.8 1.7 1 .7.2 1.4.4 2.1.4.8 0 1.5-.2 2.3-.5.6-.3 1.1-.6 1.5-1 .2-.2.2-.4 0-.6l-1.4-1-.1-.1c-.2-.1-.4-.1-.5.1-.2.2-.4.4-.6.5-.4.2-.8.3-1.2.3-.5 0-1.1-.2-1.5-.5-.5-.5-.7-1.1-.8-1.7 0-.1.1-.2.2-.2h6.3c.2 0 .4-.2.4-.5v-.5c0-.7-.1-1.4-.3-2.1-.4-.6-.7-1.1-1-1.6M73.9 20h-3.5c-.1 0-.2-.1-.2-.2 0-.2.1-.3.2-.5s.2-.4.4-.6c.2-.2.4-.3.6-.4.3-.1.6-.2.9-.2.5 0 1 .2 1.3.5.3.3.5.7.5 1.1.1.2 0 .3-.2.3M44.5 23.6h-5.1c-.1 0-.2-.1-.2-.2V12.9c0-.2-.2-.4-.4-.5h-2.2c-.2 0-.4.2-.4.5V26c0 .3.2.5.5.5h7.9c.2 0 .4-.2.5-.4v-2c-.2-.3-.4-.5-.6-.5M139.3 11.3h-.6c-.3 0-.5.2-.5.4v5.6c0 .1-.1.2-.2.1h-.1l-.1-.1c-.3-.3-.7-.6-1.2-.9-.6-.3-1.2-.4-1.9-.4s-1.4.1-2 .4c-.6.2-1.1.6-1.5 1-.4.4-.8 1-1 1.6-.5 1.5-.5 3.2 0 4.8.2.6.6 1.1 1 1.6.4.4.9.8 1.5 1 .6.3 1.2.4 1.9.4.8 0 1.5-.2 2.2-.5.4-.2.8-.5 1.1-.9l.1-.1.1-.1.1-.1c.1 0 .2.1.2.2v.7c0 .3.2.5.5.5h.6c.3 0 .5-.2.5-.5V11.8c-.3-.3-.5-.5-.7-.5m-1.4 11.9c-.3.8-.9 1.5-1.7 1.9-.9.4-1.9.4-2.8 0-.8-.4-1.4-1-1.7-1.9-.3-1.2-.3-2.4 0-3.6.2-.4.4-.8.7-1.1.3-.3.6-.6 1.1-.7.9-.4 1.9-.4 2.8 0 .4.2.7.4 1 .7.3.3.5.7.7 1.1.2 1.2.2 2.4-.1 3.6M149.7 18.9c-.2-.6-.5-1.1-.9-1.5-.4-.4-.9-.7-1.4-1-.6-.2-1.2-.3-1.8-.3-.7 0-1.3.1-1.9.4-.6.2-1.1.6-1.5 1-.4.4-.8 1-1 1.6-.2.7-.4 1.5-.4 2.3 0 .8.1 1.7.3 2.5.2.6.5 1.1 1 1.6.4.4.9.8 1.5 1.1.6.3 1.3.4 2 .4.8 0 1.6-.1 2.3-.4.6-.3 1.1-.7 1.6-1.2.1-.2.1-.4-.1-.6l-.5-.4c-.2-.1-.4-.1-.5 0-.7.8-1.7 1.2-2.8 1.2-.4 0-.8-.1-1.2-.2-.4-.2-.7-.4-1-.6-.3-.3-.5-.6-.6-1-.2-.5-.3-1-.3-1.5 0-.1.1-.2.2-.2h6.9c.3 0 .4-.2.5-.4v-.1c-.1-1.2-.2-2-.4-2.7m-1.6 1.5h-5.5c-.1 0-.2-.1-.2-.2.1-.7.4-1.5.9-1.9.6-.5 1.3-.7 2.1-.7.7-.1 1.5.2 2 .7.5.4.7 1.2.8 1.9.1.1 0 .2-.1.2M128.5 24.4c-.3 0-.6.1-.8.3-.4.4-.4 1.1 0 1.5.4.4 1.1.4 1.5 0 .4-.4.4-1.1 0-1.5-.1-.2-.3-.3-.7-.3M92.9 17.3c-.4-.4-.8-.8-1.3-1-.7-.2-1.4-.4-2.1-.3-.8 0-1.5.1-2.3.4-.6.2-1.1.5-1.6.9-.2.2-.2.5 0 .6l.9 1c.2.2.5.2.6 0 .2-.2.5-.4.7-.5.4-.2.9-.3 1.3-.3.5 0 1 .2 1.3.5.4.3.5.8.6 1.6 0 .1-.1.2-.2.2h-1.1c-.5 0-1 .1-1.4.1-.5.1-.9.2-1.4.3-.4.1-.8.3-1.2.6-.3.3-.6.6-.8 1-.2.4-.3.9-.3 1.4 0 .4.1.9.3 1.3.2.4.4.7.7.9.3.3.7.4 1.1.6.4.1.9.2 1.3.2.6 0 1.2-.1 1.7-.3.4-.2.8-.4 1.1-.8h.2l.1.1v.3c0 .2.2.4.4.4h1.9c.2 0 .4-.2.4-.4v-4.5c0-.9-.1-1.8-.2-2.7-.1-.5-.3-1.1-.7-1.6m-1.8 5.6c0 .5-.2 1.1-.7 1.3-.2.2-.5.3-.7.3-.3.1-.6.1-.9.1-.3 0-.7-.1-1-.3-.3-.2-.5-.4-.5-.8 0-.3.1-.6.3-.8.2-.2.5-.3.8-.4.3-.1.6-.2 1-.2h1.4c.1 0 .2.1.2.2l.1.6zM103.6 17.3c-.3-.4-.6-.7-1.1-1-.6-.3-1.2-.4-1.8-.4-.3 0-.7.1-1 .1-.3.1-.6.2-.8.4-.2.1-.4.3-.6.5l-.2.2-.1.1c-.1 0-.2-.1-.2-.2v-.4c0-.3-.2-.5-.5-.5h-2c-.3 0-.5.2-.5.5V26c0 .2.2.4.5.4h2.1c.2 0 .4-.2.5-.4v-5c0-.3 0-.6.1-.9.1-.3.1-.5.3-.8.1-.2.3-.4.5-.6.3-.2.6-.2.9-.2.6-.1 1.2.3 1.3.9.1.3.2.5.2.8V26c0 .2.2.4.5.4h2.1c.2 0 .4-.2.5-.4v-5.5c0-.6-.1-1.2-.1-1.8-.2-.4-.4-.9-.6-1.4M115.2 11.5h-2.1c-.2 0-.4.2-.4.4v5c0 .1-.1.1-.2.1s-.1 0-.1-.1l-.1-.1-.1-.1c-.3-.3-.6-.5-1-.6-.6-.2-1.1-.3-1.7-.3-.6 0-1.3.1-1.8.4-.5.3-1 .7-1.4 1.1-.4.5-.7 1.1-.9 1.6-.4 1.5-.4 3 0 4.5.2.6.5 1.1 1 1.6.4.4.9.8 1.5 1 .6.3 1.3.4 1.9.4.3 0 .6-.1 1-.1.3-.1.6-.2.9-.4.2-.1.5-.3.7-.5l.2-.2.1-.1.1-.1c.1 0 .2.1.2.1v.9c0 .2.2.4.4.4h1.9c.2 0 .4-.2.4-.5V12c-.1-.3-.3-.5-.5-.5m-2.9 11.9c-1 .9-2.5.9-3.5 0-.4-.4-.6-1.4-.6-2.1 0-.7.2-1.6.6-2 1-.9 2.5-.9 3.5 0 .4.5.6 1.3.6 2 0 .8-.2 1.7-.6 2.1M125.4 17.6c-.5-.5-1.1-.8-1.7-1-1.4-.5-2.8-.5-4.2 0-.6.2-1.2.6-1.7 1s-.9 1-1.1 1.6c-.6 1.5-.6 3.2 0 4.8.3.6.6 1.2 1.1 1.6.5.5 1.1.8 1.7 1 1.4.5 2.8.5 4.2 0 .6-.2 1.2-.6 1.7-1s.9-1 1.1-1.6c.5-1.5.5-3.2 0-4.8-.2-.6-.6-1.1-1.1-1.6m-2 6c-1 .9-2.5.9-3.5 0-.4-.4-.6-1.3-.6-2.1s.2-1.6.6-2c1-.9 2.5-.9 3.5 0 .4.4.6 1.3.6 2 0 .8-.2 1.7-.6 2.1"/></g></g></svg>
